HIERARCHY
ROOT Hips
{
 OFFSET 0.000000 0.000000 0.000000
 CHANNELS 6 Xposition Yposition Zposition Yrotation Xrotation Zrotation
 JOINT Chest
 {
  OFFSET 0.000000 9.585900 0.002600
  CHANNELS 3 Yrotation Xrotation Zrotation
  JOINT Chest2
  {
   OFFSET 0.000000 9.601200 -0.005300
   CHANNELS 3 Yrotation Xrotation Zrotation
   JOINT Chest3
   {
    OFFSET 0.000000 9.561800 0.000000
    CHANNELS 3 Yrotation Xrotation Zrotation
    JOINT Chest4
    {
     OFFSET 0.000000 9.552100 0.000000
     CHANNELS 3 Yrotation Xrotation Zrotation
     JOINT Neck
     {
      OFFSET 0.000000 14.453000 0.000000
      CHANNELS 3 Yrotation Xrotation Zrotation
      JOINT Head
      {
       OFFSET 0.000000 8.936500 -0.011300
       CHANNELS 3 Yrotation Xrotation Zrotation
       End Site
       {
        OFFSET 0.000000 17.073600 -0.006000
       }
      }
     }
     JOINT RightCollar
     {
      OFFSET -2.921100 9.558500 0.000000
      CHANNELS 3 Yrotation Xrotation Zrotation
      JOINT RightShoulder
      {
       OFFSET -13.519700 0.000000 0.000000
       CHANNELS 3 Yrotation Xrotation Zrotation
       JOINT RightElbow
       {
        OFFSET 0.000000 -29.696600 0.000000
        CHANNELS 3 Yrotation Xrotation Zrotation
        JOINT RightWrist
        {
         OFFSET 0.000000 -24.004700 0.000000
         CHANNELS 3 Yrotation Xrotation Zrotation
         End Site
         {
          OFFSET 0.000000 -17.728500 0.000000
         }
        }
       }
      }
     }
     JOINT LeftCollar
     {
      OFFSET 2.921100 9.558500 0.000000
      CHANNELS 3 Yrotation Xrotation Zrotation
      JOINT LeftShoulder
      {
       OFFSET 13.519700 0.000000 0.000000
       CHANNELS 3 Yrotation Xrotation Zrotation
       JOINT LeftElbow
       {
        OFFSET 0.000000 -29.696600 0.000000
        CHANNELS 3 Yrotation Xrotation Zrotation
        JOINT LeftWrist
        {
         OFFSET 0.000000 -24.004700 0.000000
         CHANNELS 3 Yrotation Xrotation Zrotation
         End Site
         {
          OFFSET 0.000000 -17.728500 0.000000
         }
        }
       }
      }
     }
    }
   }
  }
 }
 JOINT RightHip
 {
  OFFSET -7.771700 -0.012900 -0.001300
  CHANNELS 3 Yrotation Xrotation Zrotation
  JOINT RightKnee
  {
   OFFSET 0.000000 -40.869800 0.001200
   CHANNELS 3 Yrotation Xrotation Zrotation
   JOINT RightAnkle
   {
    OFFSET 0.000000 -39.717900 0.002100
    CHANNELS 3 Yrotation Xrotation Zrotation
    JOINT RightToe
    {
     OFFSET 0.000000 -4.965400 11.033500
     CHANNELS 3 Yrotation Xrotation Zrotation
     End Site
     {
      OFFSET 0.000000 -1.423100 5.872300
     }
    }
   }
  }
 }
 JOINT LeftHip
 {
  OFFSET 7.771700 -0.012900 -0.001300
  CHANNELS 3 Yrotation Xrotation Zrotation
  JOINT LeftKnee
  {
   OFFSET 0.000000 -40.869800 0.001200
   CHANNELS 3 Yrotation Xrotation Zrotation
   JOINT LeftAnkle
   {
    OFFSET 0.000000 -39.717900 0.002100
    CHANNELS 3 Yrotation Xrotation Zrotation
    JOINT LeftToe
    {
     OFFSET 0.000000 -4.965400 11.033500
     CHANNELS 3 Yrotation Xrotation Zrotation
     End Site
     {
      OFFSET 0.000000 -1.423100 5.872300
     }
    }
   }
  }
 }
}
MOTION
Frames: 12
Frame Time: 0.008333
0.000000 85.388000 0.000000 0.000000 -5.767877 0.000000 0.000000 11.653817 0.000000 0.000000 -5.885947 0.000000 0.000000 -0.000000 0.000000 0.000000 -0.000000 0.000000 0.000000 12.528835 0.000000 0.000000 0.711642 0.000000 0.000000 -0.000000 0.000000 0.000000 0.000000 -90.000000 0.000000 -2.309062 0.000000 0.000000 2.309062 0.000000 0.000000 -0.000000 0.000000 0.000000 -0.000000 90.000000 0.000000 -2.309062 0.000000 0.000000 2.309062 0.000000 0.000000 8.520406 0.000000 0.000000 1.905762 0.000000 -0.000000 -4.658285 0.000000 0.000000 -0.000000 0.000000 0.000000 8.520406 0.000000 0.000000 1.905762 0.000000 -0.000000 -4.658285 0.000000 0.000000 -0.000000 0.000000
-0.554330 52.226123 35.507454 172.229768 -37.717416 -2.706695 3.225227 21.798389 1.337817 0.402515 3.044966 0.291726 0.655693 4.844561 0.460286 2.781107 18.391065 2.109077 0.200384 12.066587 -0.268565 0.495424 -13.385546 -0.597007 -6.439497 -0.916105 -3.388373 -2.637823 -6.313291 3.817616 -80.679450 -31.500374 115.326453 -13.095042 4.240083 42.714470 -5.986705 1.551862 0.122311 12.355432 -7.991709 2.182035 70.505870 -20.682273 -126.500899 21.311906 1.528182 -31.267563 -5.587903 -43.068914 4.041348 -160.327531 86.225274 -156.203000 -0.854836 -12.132346 -2.813118 0.046228 -0.229368 0.026030 -0.021673 -39.967235 5.982105 69.230423 83.564374 58.740259 -5.964124 -12.633989 10.265285 0.438449 1.601626 0.189821
-0.549552 52.223971 35.493805 172.207288 -37.714068 -2.712644 3.256151 21.858099 1.375328 0.401434 3.047971 0.294599 0.657990 4.855227 0.463450 2.788191 18.407355 2.119897 0.207506 12.076132 -0.270920 0.510021 -13.367728 -0.604509 -6.417180 -0.920256 -3.373900 -2.727445 -6.449518 3.822394 -80.744221 -31.323239 115.310112 -13.553804 3.855532 42.068910 -6.005774 1.561850 0.130510 12.432484 -8.093659 2.096592 70.601370 -20.602491 -126.452858 21.670855 1.014187 -30.484482 -5.582260 -43.070432 4.066645 -160.415063 86.211455 -156.281612 -0.856447 -12.147164 -2.817693 0.046593 -0.230539 0.026802 -0.024741 -39.972485 6.012754 69.495993 83.575133 59.001490 -5.956808 -12.662389 10.264110 0.430504 1.600281 0.191269
-0.549862 52.217145 35.482444 172.201631 -37.672125 -2.702218 3.258482 21.876820 1.382393 0.398470 3.053587 0.296847 0.659789 4.867250 0.466892 2.793123 18.425927 2.131220 0.221026 12.089926 -0.274858 0.537270 -13.342056 -0.617543 -6.407801 -0.971763 -3.379941 -2.790487 -6.548010 3.853817 -80.803400 -31.185812 115.250847 -13.967230 3.500196 41.457514 -6.015000 1.570038 0.136045 12.553626 -8.190253 2.000906 70.628094 -20.523423 -126.376802 21.999016 0.533728 -29.759225 -5.568632 -43.120561 4.057331 -160.597351 86.188305 -156.456770 -0.859725 -12.166404 -2.818438 0.048467 -0.229525 0.026620 -0.019037 -40.016730 6.004889 69.670107 83.582244 59.174530 -5.965165 -12.688111 10.254316 0.431981 1.610052 0.201870
-0.550190 52.209410 35.470247 172.200066 -37.627775 -2.695335 3.252346 21.891489 1.388506 0.398742 3.059599 0.298608 0.661850 4.880677 0.470616 2.798697 18.446733 2.143546 0.238553 12.108292 -0.279205 0.572339 -13.307781 -0.633018 -6.397470 -1.023623 -3.387898 -2.818019 -6.627766 3.874110 -80.910145 -31.078354 115.187896 -14.333305 3.175447 40.869539 -6.019008 1.576598 0.142200 12.614814 -8.287909 1.926658 70.688347 -20.422226 -126.270771 22.303379 0.099550 -29.097646 -5.564372 -43.174128 4.052289 -160.779291 86.162598 -156.635693 -0.857990 -12.182238 -2.815906 0.048591 -0.232159 0.023389 -0.018094 -40.064271 5.997845 69.849426 83.591301 59.353186 -5.973076 -12.715094 10.248735 0.437292 1.620025 0.204830
-0.548458 52.201863 35.456953 172.164544 -37.592515 -2.680689 3.277060 21.949383 1.418142 0.403282 3.027896 0.288348 0.664989 4.895692 0.474347 2.807735 18.469734 2.156052 0.256975 12.130520 -0.281755 0.608440 -13.266278 -0.645465 -6.316301 -0.933535 -3.356174 -2.917564 -6.829777 3.845522 -81.041580 -30.998346 115.120234 -14.662070 2.873644 40.293792 -6.025951 1.580569 0.153535 12.627221 -8.385806 1.866982 70.771050 -20.307665 -126.134498 22.580614 -0.292946 -28.490526 -5.544587 -43.218294 4.064789 -160.953077 86.140606 -156.803507 -0.858879 -12.200869 -2.817813 0.049716 -0.228323 0.022312 -0.001389 -40.105172 6.008190 70.120855 83.604204 59.622850 -5.972815 -12.744275 10.250474 0.432118 1.620233 0.201427
-0.547275 52.196416 35.440100 172.149679 -37.583536 -2.673467 3.291360 22.005000 1.436307 0.406963 3.025100 0.287244 0.669354 4.911940 0.477921 2.803022 18.442545 2.150614 0.292243 12.208764 -0.270478 0.642124 -13.217937 -0.654666 -6.244978 -0.844919 -3.325130 -2.994045 -6.975461 3.824840 -81.183766 -30.958631 115.031178 -14.964212 2.584441 39.720003 -6.022766 1.633273 0.177022 12.655275 -8.477851 1.797375 70.809913 -20.200721 -125.972751 22.823086 -0.657667 -27.919878 -5.534704 -43.230696 4.065745 -161.043170 86.114158 -156.888413 -0.851951 -12.225066 -2.823017 0.050683 -0.227338 0.023699 0.007010 -40.117417 6.004018 70.360593 83.619581 59.865180 -5.954407 -12.775937 10.250303 0.420626 1.620194 0.196853
-0.546351 52.191344 35.422628 172.144974 -37.582262 -2.670380 3.303058 22.057230 1.454520 0.410257 3.035760 0.289252 0.674656 4.928228 0.481157 2.827417 18.492273 2.170104 0.301108 12.212857 -0.277701 0.673654 -13.162903 -0.663176 -6.214995 -0.869838 -3.302921 -3.035138 -7.093952 3.814922 -81.343097 -30.959228 114.913373 -15.238943 2.301286 39.137303 -6.048478 1.602548 0.190901 12.672843 -8.573803 1.732021 70.833083 -20.095693 -125.782098 23.036469 -1.002950 -27.374627 -5.526233 -43.233637 4.055326 -161.246437 86.090772 -157.078633 -0.848623 -12.250603 -2.834758 0.052960 -0.227588 0.026561 0.013422 -40.125549 5.994281 70.635627 83.635045 60.143914 -5.928038 -12.797251 10.249742 0.401652 1.608186 0.193030
-0.546040 52.184510 35.407811 172.117957 -37.566479 -2.651088 3.335854 22.097177 1.474751 0.413775 3.046144 0.291037 0.680315 4.944088 0.484149 2.855954 18.542375 2.189645 0.307590 12.218747 -0.284587 0.705374 -13.102088 -0.671113 -6.192998 -0.903092 -3.274254 -3.068988 -7.196319 3.792704 -81.501446 -30.969688 114.788870 -15.487742 2.015052 38.533436 -6.086691 1.571326 0.204346 12.688216 -8.671273 1.669729 70.846735 -19.992809 -125.575577 23.231970 -1.327169 -26.846323 -5.500857 -43.258262 4.048049 -161.432252 86.065204 -157.256468 -0.846444 -12.270463 -2.841000 0.050916 -0.227208 0.027315 0.038088 -40.145082 5.989689 70.898921 83.645341 60.403606 -5.926414 -12.824196 10.254413 0.392764 1.605013 0.190568
-0.538513 52.181724 35.390241 172.056185 -37.587535 -2.648955 3.417636 22.172337 1.540727 0.417387 3.056489 0.292912 0.686090 4.960013 0.487305 2.874620 18.565866 2.200623 0.325623 12.253749 -0.284554 0.739440 -13.036816 -0.678263 -6.164388 -0.915562 -3.238588 -3.113906 -7.290059 3.763211 -81.623181 -30.976809 114.646492 -15.720009 1.724577 37.911545 -6.122589 1.571187 0.222050 12.699975 -8.776217 1.604194 70.851239 -19.888190 -125.356531 23.413701 -1.636839 -26.331252 -5.473180 -43.236847 4.089799 -161.501156 86.051839 -157.309796 -0.843103 -12.283522 -2.849675 0.052167 -0.228451 0.025467 0.082581 -40.132364 6.022392 71.255113 83.652436 60.772863 -5.890568 -12.832507 10.264836 0.337276 1.568525 0.170373
-0.538496 52.173485 35.379838 172.014016 -37.551728 -2.617260 3.461325 22.195659 1.557160 0.420898 3.067054 0.295051 0.691732 4.976254 0.490851 2.892824 18.589777 2.212994 0.346866 12.289683 -0.284699 0.779766 -12.969856 -0.687096 -6.132209 -0.932289 -3.203328 -3.166413 -7.369770 3.727078 -81.704008 -30.967426 114.491182 -15.941505 1.438607 37.294119 -6.161107 1.575970 0.237197 12.703238 -8.879025 1.550933 70.851770 -19.768006 -125.145742 23.583070 -1.948604 -25.842262 -5.430634 -43.286417 4.066069 -161.933355 86.036036 -157.717839 -0.844729 -12.297315 -2.867678 0.054602 -0.228430 0.024500 0.138806 -40.173426 6.004766 71.503627 83.656319 61.028609 -5.897791 -12.859176 10.271893 0.332941 1.569482 0.168860
-0.537596 52.167679 35.368387 171.997064 -37.531073 -2.601870 3.477930 22.205319 1.562527 0.429130 3.109176 0.307286 0.691974 4.970571 0.488010 2.916424 18.637434 2.234315 0.372674 12.324581 -0.285478 0.828852 -12.904848 -0.699009 -6.096182 -0.949912 -3.171027 -3.203979 -7.439566 3.696968 -81.755875 -30.943898 114.324117 -16.150676 1.162922 36.703427 -6.200085 1.583956 0.247393 12.700346 -8.986794 1.511173 70.842902 -19.626739 -124.937067 23.733308 -2.259842 -25.404855 -5.414326 -43.310736 4.045638 -162.366055 86.024674 -158.131619 -0.840839 -12.321703 -2.891517 0.053000 -0.222091 0.027299 0.177105 -40.197136 5.988335 71.720902 83.657677 61.254371 -5.906486 -12.882991 10.279568 0.332328 1.570101 0.164657
